<svg xmlns="http://www.w3.org/2000/svg" viewBox="0 0 64 64" width="64" height="64">
  <defs>
    <linearGradient id="grad" x1="0%" y1="0%" x2="100%" y2="100%">
      <stop offset="0%" stop-color="#005696" />
      <stop offset="100%" stop-color="#0284c7" />
    </linearGradient>
  </defs>
  <rect width="64" height="64" rx="14" fill="url(#grad)" />
  <path d="M16 16 C16 13 20 12 32 12 C44 12 48 13 48 16 L48 42 C48 45 45 46 43 46 L43 49 C43 51 40 51 40 49 L40 46 L24 46 L24 49 C24 51 21 51 21 49 L21 46 C19 46 16 45 16 42 Z" fill="#ffffff" />
  <rect x="20" y="17" width="24" height="11" rx="2" fill="#005696" />
  <rect x="18" y="32" width="28" height="3" fill="#f26522" />
  <circle cx="21" cy="39" r="2.5" fill="#f59e0b" />
  <circle cx="43" cy="39" r="2.5" fill="#f59e0b" />
  <rect x="27" y="38" width="10" height="2" rx="1" fill="#cbd5e1" />
</svg>